<svg xmlns="http://www.w3.org/2000/svg" xmlns:xlink="http://www.w3.org/1999/xlink" width="192" height="1728"><defs><symbol id="document-pdfAcrobat"><g><path d="M112.02 8h-74A12.059 12.059 0 0 0 26 20v152a12.059 12.059 0 0 0 12.02 12h116A12.018 12.018 0 0 0 166 172V62zM112 25.4L148.54 62H112zm40.92 104.48a8.546 8.546 0 0 1-2.46 5.8c-1.5 1.67-4.13 2.63-8 2.63a65.128 65.128 0 0 1-26.38-6.5c-15.12 1.67-26.37 3.69-35.42 6.59l-1.59.62C68.17 157.65 60.09 166 52.97 166l-3.87-.96-4.22-2.73-.27-.44a8.015 8.015 0 0 1-.44-4.74c.97-4.66 5.98-12.05 16.53-18.64l7.83-4.31 8.44-15.82a148.747 148.747 0 0 0 9.49-25.76v-.09c-3.25-10.64-5.19-17.06-1.93-28.75.79-3.34 3.69-6.77 6.94-6.77h2.11a7.514 7.514 0 0 1 5.37 2.11c5.8 5.8 3.07 19.96.17 31.65l-.35 1.23c3.52 9.94 8.53 17.94 14.07 22.51l7.64 5.1 11.34-.62c10.91 0 17.5 1.94 20.05 6.07a7.1 7.1 0 0 1 1.05 4.84zm-21.99-3.25a1.866 1.866 0 0 0-1.82.79c5.78 2.53 11.39 4.03 15.03 4.03l1.5-.16h.32c.4-.16.63-.23.72-1.02l-.72-.87c-.79-.8-3.95-2.77-15.03-2.77zm-37.25-22.94a116.346 116.346 0 0 1-7.99 18.99l-3.95 8.23.87-.31v-.01a149.411 149.411 0 0 1 26.42-7.35l-3.24-2.53c-4.75-4.04-8.86-9.89-12.11-17.02zm-.45-23.44l1.27-6.49.24-1.26c.79-4.27.64-6.8-.71-8.7l-1.19-.4-.55.95c-1.35 3.32-1.27 9.1.54 16.22zm-41.1 78.72c3.56-1.18 8.23-6.41 13.37-15.82l-3.8 2.45c-5.61 5.14-9.17 10.36-9.57 13.37z"/></g></symbol></defs><use xlink:href="#document-pdfAcrobat" x="0" y="0" fill="#555555"/><use xlink:href="#document-pdfAcrobat" x="0" y="192" fill="#007c8c"/><use xlink:href="#document-pdfAcrobat" x="0" y="384" fill="#cc0000"/><use xlink:href="#document-pdfAcrobat" x="0" y="576" fill="#cccccc"/><use xlink:href="#document-pdfAcrobat" x="0" y="768" fill="#ffffff"/><use xlink:href="#document-pdfAcrobat" x="0" y="960" fill="#990000"/><use xlink:href="#document-pdfAcrobat" x="0" y="1152" fill="#44bb55"/><use xlink:href="#document-pdfAcrobat" x="0" y="1344" fill="#ff9933"/><use xlink:href="#document-pdfAcrobat" x="0" y="1536" fill="#9bd7df"/></svg>