<svg xmlns="http://www.w3.org/2000/svg" width="192" height="1728" xmlns:xlink="http://www.w3.org/1999/xlink"><defs><symbol id="ellipsis"><g><path d="M48 80a16 16 0 1 0 16 16 16.047 16.047 0 0 0-16-16zm96 0a16 16 0 1 0 16 16 16.047 16.047 0 0 0-16-16zm-48 0a16 16 0 1 0 16 16 16.047 16.047 0 0 0-16-16z"/></g></symbol></defs><use xlink:href="#ellipsis" x="0" y="0" fill="#555555"/><use xlink:href="#ellipsis" x="0" y="192" fill="#007c8c"/><use xlink:href="#ellipsis" x="0" y="384" fill="#cc0000"/><use xlink:href="#ellipsis" x="0" y="576" fill="#cccccc"/><use xlink:href="#ellipsis" x="0" y="768" fill="#ffffff"/><use xlink:href="#ellipsis" x="0" y="960" fill="#990000"/><use xlink:href="#ellipsis" x="0" y="1152" fill="#44bb55"/><use xlink:href="#ellipsis" x="0" y="1344" fill="#ff9933"/><use xlink:href="#ellipsis" x="0" y="1536" fill="#9bd7df"/></svg>