<svg xmlns="http://www.w3.org/2000/svg" xmlns:xlink="http://www.w3.org/1999/xlink" width="192" height="1728"><defs><symbol id="mail"><g><path d="M0 0h192v192H0z" fill="none"/><path d="M160 32H32a15.979 15.979 0 0 0-15.92 16L16 144a16.047 16.047 0 0 0 16 16h128a16.047 16.047 0 0 0 16-16V48a16.047 16.047 0 0 0-16-16zm0 32l-64 40-64-40V48l64 40 64-40z"/></g></symbol></defs><use xlink:href="#mail" x="0" y="0" fill="#555555"/><use xlink:href="#mail" x="0" y="192" fill="#007c8c"/><use xlink:href="#mail" x="0" y="384" fill="#cc0000"/><use xlink:href="#mail" x="0" y="576" fill="#cccccc"/><use xlink:href="#mail" x="0" y="768" fill="#ffffff"/><use xlink:href="#mail" x="0" y="960" fill="#990000"/><use xlink:href="#mail" x="0" y="1152" fill="#44bb55"/><use xlink:href="#mail" x="0" y="1344" fill="#ff9933"/><use xlink:href="#mail" x="0" y="1536" fill="#9bd7df"/></svg>